<?xml version="1.0" encoding="UTF-8" standalone="no"?>
<!DOCTYPE svg PUBLIC "-//W3C//DTD SVG 1.1//EN"
 "http://www.w3.org/Graphics/SVG/1.1/DTD/svg11.dtd">
<!-- Generated by graphviz version 8.1.0 (20230707.0739)
 -->
<!-- Title: DAG Pages: 1 -->
<svg width="164pt" height="188pt"
 viewBox="0.00 0.00 164.20 188.00" xmlns="http://www.w3.org/2000/svg" xmlns:xlink="http://www.w3.org/1999/xlink">
<g id="graph0" class="graph" transform="scale(1 1) rotate(0) translate(4 184)">
<title>DAG</title>
<polygon fill="white" stroke="none" points="-4,4 -4,-184 160.2,-184 160.2,4 -4,4"/>
<!-- itemStream -->
<g id="node1" class="node">
<title>itemStream</title>
<ellipse fill="none" stroke="black" cx="78.1" cy="-162" rx="55.55" ry="18"/>
<text text-anchor="middle" x="78.1" y="-157.8" font-family="Times,serif" font-size="14.00">itemStream</text>
</g>
<!-- mapUsingPython -->
<g id="node2" class="node">
<title>mapUsingPython</title>
<ellipse fill="none" stroke="black" cx="78.1" cy="-90" rx="78.1" ry="18"/>
<text text-anchor="middle" x="78.1" y="-85.8" font-family="Times,serif" font-size="14.00">mapUsingPython</text>
</g>
<!-- itemStream&#45;&gt;mapUsingPython -->
<g id="edge1" class="edge">
<title>itemStream&#45;&gt;mapUsingPython</title>
<path fill="none" stroke="black" d="M78.1,-143.7C78.1,-136.24 78.1,-127.32 78.1,-118.97"/>
<polygon fill="black" stroke="black" points="81.6,-119.1 78.1,-109.1 74.6,-119.1 81.6,-119.1"/>
</g>
<!-- loggerSink -->
<g id="node3" class="node">
<title>loggerSink</title>
<ellipse fill="none" stroke="black" cx="78.1" cy="-18" rx="53.42" ry="18"/>
<text text-anchor="middle" x="78.1" y="-13.8" font-family="Times,serif" font-size="14.00">loggerSink</text>
</g>
<!-- mapUsingPython&#45;&gt;loggerSink -->
<g id="edge2" class="edge">
<title>mapUsingPython&#45;&gt;loggerSink</title>
<path fill="none" stroke="black" d="M78.1,-71.7C78.1,-64.24 78.1,-55.32 78.1,-46.97"/>
<polygon fill="black" stroke="black" points="81.6,-47.1 78.1,-37.1 74.6,-47.1 81.6,-47.1"/>
</g>
</g>
</svg>
